<?xml version="1.0" encoding="UTF-8"?>
<!DOCTYPE svg PUBLIC "-//W3C//DTD SVG 1.1//EN" "http://www.w3.org/Graphics/SVG/1.1/DTD/svg11.dtd">
<svg xmlns="http://www.w3.org/2000/svg" version="1.1" width="254px" height="304px" style="shape-rendering:geometricPrecision; text-rendering:geometricPrecision; image-rendering:optimizeQuality; fill-rule:evenodd; clip-rule:evenodd" xmlns:xlink="http://www.w3.org/1999/xlink">
<g><path style="opacity:0.949" fill="#fefffe" d="M 179.5,8.5 C 214.618,6.99452 235.618,23.1612 242.5,57C 231.151,57.6412 219.817,58.4745 208.5,59.5C 216.436,66.7892 221.27,75.7892 223,86.5C 223.031,114.5 223.031,142.5 223,170.5C 225.333,180.167 227.667,189.833 230,199.5C 231.961,216.172 231.961,232.839 230,249.5C 220.206,274.661 201.706,286.661 174.5,285.5C 158.121,285.857 142.454,282.691 127.5,276C 113.99,268.745 100.323,261.745 86.5,255C 69.5982,249.855 52.9316,250.521 36.5,257C 30.1461,260.673 23.8127,264.006 17.5,267C 15.0468,257.75 15.5468,248.583 19,239.5C 37.3225,216.334 61.3225,203.334 91,200.5C 97.7582,200.894 104.258,202.394 110.5,205C 123.117,213.949 135.45,223.283 147.5,233C 154.167,237.5 161.501,239.166 169.5,238C 176.974,234.88 179.474,229.38 177,221.5C 174.481,206.457 169.148,192.457 161,179.5C 146.943,159.774 133.276,139.774 120,119.5C 108.586,95.0594 106.92,70.0594 115,44.5C 123.462,30.003 135.629,19.8363 151.5,14C 160.829,11.3938 170.162,9.56047 179.5,8.5 Z M 176.5,28.5 C 187.476,27.1133 197.809,28.9466 207.5,34C 208.5,35 209.5,36 210.5,37C 190.069,37.724 172.736,45.224 158.5,59.5C 165.966,62.1186 173.632,64.2853 181.5,66C 192,69.8333 199.167,77 203,87.5C 203.333,116.833 203.667,146.167 204,175.5C 205.705,186.288 208.039,196.954 211,207.5C 219.676,253.157 201.176,271.99 155.5,264C 136.991,257.913 119.325,249.913 102.5,240C 88.77,234.187 74.4367,231.187 59.5,231C 66.3786,227.394 73.3786,224.061 80.5,221C 90.7398,218.966 100.073,220.966 108.5,227C 117.614,235.716 127.28,243.716 137.5,251C 150.923,258.014 164.923,259.681 179.5,256C 192.086,249.009 198.086,238.176 197.5,223.5C 196.639,214.722 195.139,206.055 193,197.5C 188.278,187.055 183.278,176.721 178,166.5C 165.855,150.889 154.188,134.889 143,118.5C 131.846,100.227 127.846,80.5604 131,59.5C 134.733,47.8641 142.233,39.6975 153.5,35C 161.081,32.0779 168.748,29.9113 176.5,28.5 Z"/></g>
</svg>
